# AST/ASF file generated using VICON BodyLanguage
# -----------------------------------------------
:version 1.10
:name VICON
:units
  mass 1.0
  length 0.45
  angle deg
:documentation
   .ast/.asf automatically generated from VICON data using
   VICON BodyBuilder and BodyLanguage model FoxedUp or BRILLIANT.MOD
:root
   order TX TY TZ RX RY RZ
   axis XYZ
   position 0 0 0  
   orientation 0 -0 0 
:bonedata
  begin
     id 1 
     name lhipjoint
     direction 0.515797 -0.759363 0.396637 
     length 2.47888 
     axis 0 -0 0  XYZ
  end
  begin
     id 2 
     name lfemur
     direction 0.34202 -0.939693 0  
     length 6.81885  
     axis 0 -0 20  XYZ
    dof rx ry rz
    limits (-160.0 20.0)
           (-70.0 70.0)
           (-60.0 70.0)
  end
  begin
     id 3 
     name ltibia
     direction 0.342037 -0.939687 0   
     length 7.89258   
     axis 0 -0 20   XYZ
    dof rx
    limits (-10.0 170.0)
  end
  begin
     id 4 
     name lfoot
     direction 0.173497 -0.476678 0.861787   
     length 2.51543   
     axis -90 -1.13533e-015 20   XYZ
    dof rx rz
    limits (-45.0 90.0)
           (-70.0 20.0)
  end
  begin
     id 5 
     name ltoes
     direction 1.53564e-011 -4.21897e-011 1   
     length 1.21388   
     axis -90 -1.13533e-015 20   XYZ
    dof rx
    limits (-90.0 20.0)
  end
  begin
     id 6 
     name rhipjoint
     direction -0.489454 -0.772941 0.403729   
     length 2.43534  
     axis 0 -0 0  XYZ 
  end
  begin
     id 7 
     name rfemur
     direction -0.34202 -0.939693 0   
     length 7.10357   
     axis 0 -0 -20   XYZ
    dof rx ry rz
    limits (-160.0 20.0)
           (-70.0 70.0)
           (-70.0 60.0)
  end
  begin
     id 8 
     name rtibia
     direction -0.34202 -0.939693 0   
     length 9.16127   
     axis 0 -0 -20   XYZ
    dof rx
    limits (-10.0 170.0)
 end
 begin
     id 9 
     name rfoot
     direction -0.270974 -0.748671 0.605033   
     length 1.74894  
     axis -90 1.13533e-015 -20   XYZ
    dof rx rz
    limits (-45.0 90.0)
           (-20.0 70.0)
  end
  begin
     id 10 
     name rtoes
     direction -1.53557e-011 -4.21759e-011 1   
     length 0.787585   
     axis -90 1.13533e-015 -20   XYZ
    dof rx
    limits (-90.0 20.0)
  end
  begin
     id 11 
     name lowerback
     direction -0.0140249 0.999561 0.0260968   
     length 2.16963   
     axis 0 -0 0   XYZ
    dof rx ry rz
    limits (-20.0 45.0)
           (-30.0 30.0)
           (-30.0 30.0)
  end
  begin
     id 12 
     name upperback
     direction 0.00860018 0.999959 -0.002711   
     length 2.1726   
     axis 0 -0 0   XYZ
    dof rx ry rz
    limits (-20.0 45.0)
           (-30.0 30.0)
           (-30.0 30.0)
  end
  begin
     id 13 
     name thorax
     direction 0.015211 0.999782 -0.0143191   
     length 2.17061   
     axis 0 -0 0   XYZ
    dof rx ry rz
    limits (-20.0 45.0)
           (-30.0 30.0)
           (-30.0 30.0)
  end
  begin
     id 14 
     name lowerneck
     direction -0.0140143 0.999447 0.030145   
     length 2.26749   
     axis 0 -0 0   XYZ
    dof rx ry rz
    limits (-20.0 45.0)
           (-30.0 30.0)
           (-30.0 30.0)
  end
  begin
     id 15 
     name upperneck
     direction 0.118062 0.961438 -0.248392   
     length 2.22728   
     axis 0 -0 0   XYZ
    dof rx ry rz
    limits (-20.0 45.0)
           (-30.0 30.0)
           (-30.0 30.0)
  end
  begin
     id 16
     name head
     direction 0.0431885 0.9954 -0.085514  
     length 2.28786  
     axis 0 -0 0   XYZ
    dof rx ry rz
    limits (-20.0 45.0)
           (-30.0 30.0)
           (-30.0 30.0)
  end
  begin
     id 17 
     name lclavicle
     direction 0.912126 0.409548 0.0172323  
     length 4.31571  
     axis 0 -0 0   XYZ
    dof ry rz
    limits (-20.0 10.0)
           (0.0 20.0)
  end
  begin
     id 18 
     name lhumerus
     direction 1 -4.48977e-011 1.93091e-027   
     length 5.13658   
     axis 180 -30 -90   XYZ
    dof rx ry rz
    limits (-60.0 90.0)
           (-90.0 90.0)
           (-90.0 90.0)
  end
  begin
     id 19
     name lradius
     direction 1 -4.48916e-011 6.84018e-027   
     length 3.22473   
     axis 180 -30 -90   XYZ
    dof rx
    limits (-10.0 170.0)
  end
  begin
     id 20
     name lwrist
     direction 1 -4.48987e-011 7.01981e-027   
     length 1.61236   
     axis -4.37994e-015 90 90   XYZ
    dof ry
    limits (-180.0 0.0)
 end
  begin
     id 21 
     name lhand
     direction 1 -4.49037e-011 1.40335e-026   
     length 0.936406   
     axis -8.96029e-015 90 90   XYZ
    dof rx rz
    limits (-90.0 90.0)
           (-45.0 45.0)
  end
  begin
     id 22 
     name lfingers
     direction 1 -4.48886e-011 2.8104e-026   
     length 0.754955   
     axis -1.79203e-014 90 90   XYZ
    dof rx
    limits (0.0 90.0)
  end
  begin
     id 23
     name lthumb
     direction 0.707107 -6.34937e-011 0.707107   
     length 1.08397   
     axis -90 45 -4.48555e-014   XYZ
    dof rx rz
    limits (-45.0 45.0)
           (-45.0 45.0)
  end
  begin
     id 24 
     name rclavicle
     direction -0.947962 0.317997 0.0156638   
     length 4.86918  
     axis 0 -0 0   XYZ 
    dof ry rz
    limits (-10.0 20.0)
           (-20.0 0.0)
  end
  begin
     id 25 
     name rhumerus
     direction -1 -4.48951e-011 2.80534e-018  
     length 5.60911   
     axis 180 30 90   XYZ
    dof rx ry rz
    limits (-90.0 60.0)
           (-90.0 90.0)
           (-90.0 90.0)
  end
  begin
     id 26 
     name rradius
     direction -1 -4.4898e-011 2.11315e-027   
     length 3.38704   
     axis 180 30 90   XYZ
    dof rx
    limits (-10.0 170.0)
  end
  begin
     id 27 
     name rwrist
     direction -1 -4.48933e-011 7.02314e-027   
     length 1.69352   
     axis -4.37994e-015 -90 -90   XYZ
    dof ry
    limits (-180.0 0.0)
  end
  begin
     id 28
     name rhand
     direction -1 -4.48937e-011 1.40458e-026   
     length 0.755878   
     axis -8.96029e-015 -90 -90   XYZ
    dof rx rz
    limits (-90.0 90.0)
           (-45.0 45.0)
  end
  begin
     id 29
     name rfingers
     direction -1 -4.4901e-011 2.80737e-026   
     length 0.609409   
     axis -1.79203e-014 -90 -90   XYZ
    dof rx
    limits (0.0 90.0)
  end
  begin
     id 30
     name rthumb
     direction -0.707107 -6.34968e-011 0.707107   
     length 0.874992   
     axis -90 -45 4.48555e-014   XYZ
    dof rx rz
    limits (-45.0 45.0)
           (-45.0 45.0)
  end
:hierarchy
  begin
    root lhipjoint rhipjoint lowerback
    lhipjoint lfemur
    lfemur ltibia
    ltibia lfoot
    lfoot ltoes
    rhipjoint rfemur
    rfemur rtibia
    rtibia rfoot
    rfoot rtoes
    lowerback upperback
    upperback thorax
    thorax lowerneck lclavicle rclavicle
    lowerneck upperneck
    upperneck head
    lclavicle lhumerus
    lhumerus lradius
    lradius lwrist
    lwrist lhand lthumb
    lhand lfingers
    rclavicle rhumerus
    rhumerus rradius
    rradius rwrist
    rwrist rhand rthumb
    rhand rfingers
  end

#!OML:ASF C:\ViconDB\ViconDB\414\Spring2016\041811\Spring2016.ASF
:FULLY-SPECIFIED
:DEGREES
77
root 6.67772 18.3074 -6.49616 -177.616 -8.62326 179.189
lowerback -4.2523 1.0617 -3.76163
upperback 1.30743 1.61667 0.315459
thorax 3.62327 0.71387 2.55278
lowerneck -15.382 3.37904 -2.78808
upperneck 26.8441 2.42916 6.99002
head 11.0717 1.24399 3.27785
rclavicle -1.70753e-014 -2.36057e-015
rhumerus -43.4146 -19.48 -83.4825
rradius 32.9531
rwrist 40.0303
rhand -35.1841 -15.2488
rfingers 7.12502
rthumb -8.32247 -45.0649
lclavicle -1.70753e-014 -2.36057e-015
lhumerus -37.3384 -4.49776 93.195
lradius 24.6614
lwrist -31.9848
lhand -29.1185 14.7833
lfingers 7.12502
lthumb -2.46612 44.7488
rfemur 0.910497 -13.1369 18.9338
rtibia 12.2151
rfoot -10.0966 -1.42927
rtoes -12.3816
lfemur -7.62339 -11.4186 -17.8313
ltibia 22.2599
lfoot -20.5715 9.18408
ltoes -10.1475
78
root 6.67691 18.3071 -6.50227 -177.589 -8.60759 179.172
lowerback -4.26129 1.06597 -3.80504
upperback 1.30441 1.62506 0.317492
thorax 3.62348 0.71706 2.58001
lowerneck -15.2835 3.32977 -2.82065
upperneck 26.7636 2.3752 6.97708
head 11.0246 1.21434 3.26614
rclavicle 2.47681e-014 -1.14301e-015
rhumerus -43.4135 -19.2813 -83.5342
rradius 33.0749
rwrist 39.877
rhand -35.5616 -15.0183
rfingers 7.12502
rthumb -8.6868 -44.8195
lclavicle 2.47681e-014 -1.14301e-015
lhumerus -37.3505 -4.65194 93.299
lradius 24.7294
lwrist -31.4736
lhand -29.3493 14.7989
lfingers 7.12502
lthumb -2.68905 44.7617
rfemur 0.901331 -13.134 18.9079
rtibia 12.2126
rfoot -10.1036 -1.45323
rtoes -12.3163
lfemur -7.63452 -11.3913 -17.8439
ltibia 22.2727
lfoot -20.6027 9.16219
ltoes -10.131
79
root 6.67597 18.3067 -6.50826 -177.582 -8.59014 179.171
lowerback -4.22301 1.04607 -3.85811
upperback 1.29055 1.59937 0.323128
thorax 3.58788 0.703999 2.61266
lowerneck -15.2814 3.33997 -2.76515
upperneck 26.7616 2.3853 6.93705
head 11.0248 1.21951 3.24318
rclavicle -9.00122e-015 -1.61513e-015
rhumerus -43.4139 -19.0428 -83.6305
rradius 33.2341
rwrist 39.8244
rhand -35.7015 -14.9421
rfingers 7.12502
rthumb -8.82171 -44.7377
lclavicle -9.00122e-015 -1.61513e-015
lhumerus -37.3775 -4.50191 93.2138
lradius 24.6939
lwrist -31.6857
lhand -29.6285 14.7578
lfingers 7.12502
lthumb -2.95871 44.7171
rfemur 0.921414 -13.2102 18.9027
rtibia 12.2052
rfoot -10.1579 -1.49859
rtoes -12.3644
lfemur -7.63093 -11.3097 -17.8486
ltibia 22.291
lfoot -20.6088 9.1298
ltoes -10.1921
80
root 6.67442 18.3045 -6.51443 -177.577 -8.57766 179.161
lowerback -4.19122 1.03183 -3.88987
upperback 1.28964 1.58044 0.331683
thorax 3.56936 0.694191 2.63724
lowerneck -15.3091 3.27104 -2.98974
upperneck 26.8301 2.27463 7.14706
head 11.0544 1.16753 3.3464
rclavicle 2.06154e-014 1.01877e-015
rhumerus -43.4037 -18.8436 -83.6805
rradius 33.4524
rwrist 39.756
rhand -35.678 -14.9871
rfingers 7.12502
rthumb -8.79913 -44.7837
lclavicle 2.06154e-014 1.01877e-015
lhumerus -37.3729 -4.24873 93.1445
lradius 24.7149
lwrist -31.7604
lhand -29.8283 14.8027
lfingers 7.12502
lthumb -3.15167 44.7591
rfemur 0.932537 -13.4081 18.8764
rtibia 12.199
rfoot -10.2986 -1.63671
rtoes -12.4287
lfemur -7.62158 -11.3308 -17.8715
ltibia 22.3189
lfoot -20.6567 9.14859
ltoes -10.1432
81
root 6.67305 18.3028 -6.51983 -177.553 -8.55146 179.171
lowerback -4.18149 1.03188 -3.86983
upperback 1.29354 1.5795 0.313882
thorax 3.56894 0.694257 2.60732
lowerneck -15.374 3.21013 -3.16332
upperneck 26.8594 2.15835 7.3937
head 11.0782 1.1256 3.45383
rclavicle 8.61918e-015 -4.5472e-015
rhumerus -43.3722 -18.6738 -83.8002
rradius 33.6566
rwrist 39.4993
rhand -35.9241 -14.8066
rfingers 7.12502
rthumb -9.03655 -44.593
lclavicle 8.61918e-015 -4.5472e-015
lhumerus -37.3854 -4.078 93.0289
lradius 24.7785
lwrist -32.065
lhand -30.098 14.9021
lfingers 7.12502
lthumb -3.41205 44.8546
rfemur 0.897668 -13.4591 18.867
rtibia 12.2332
rfoot -10.3239 -1.71835
rtoes -12.3728
lfemur -7.63619 -11.2233 -17.8553
ltibia 22.3321
lfoot -20.6381 9.06017
ltoes -10.1631
82
root 6.67189 18.3018 -6.52491 -177.545 -8.50946 179.167
lowerback -4.1732 1.03464 -3.90842
upperback 1.32516 1.58523 0.318476
thorax 3.59559 0.695014 2.63439
lowerneck -15.307 3.14091 -3.22821
upperneck 26.7534 2.06172 7.47273
head 11.0289 1.08574 3.47583
rclavicle 3.80331e-014 4.87022e-015
rhumerus -43.2865 -18.387 -83.9342
rradius 33.8501
rwrist 39.258
rhand -36.2844 -14.774
rfingers 7.12502
rthumb -9.38424 -44.5451
lclavicle 3.80331e-014 4.87022e-015
lhumerus -37.3477 -3.92593 92.9376
lradius 24.8041
lwrist -32.2322
lhand -30.4839 14.9597
lfingers 7.12502
lthumb -3.78479 44.9059
rfemur 0.906708 -13.4648 18.8538
rtibia 12.2237
rfoot -10.3622 -1.75792
rtoes -12.3771
lfemur -7.62993 -11.2976 -17.8685
ltibia 22.3588
lfoot -20.695 9.15944
ltoes -10.157
83
root 6.67022 18.3024 -6.53098 -177.536 -8.46911 179.169
lowerback -4.1661 1.02536 -3.92829
upperback 1.34021 1.5738 0.318963
thorax 3.60755 0.688313 2.64532
lowerneck -15.3321 3.06695 -3.29571
upperneck 26.7611 1.95024 7.54332
head 11.0421 1.03559 3.49948
rclavicle 2.19486e-014 -2.06239e-015
rhumerus -43.2472 -18.1226 -84.0784
rradius 34.109
rwrist 38.9861
rhand -36.4077 -14.8393
rfingers 7.12502
rthumb -9.50317 -44.6051
lclavicle 2.19486e-014 -2.06239e-015
lhumerus -37.3499 -3.62473 92.7945
lradius 24.8376
lwrist -32.5027
lhand -30.9674 15.1072
lfingers 7.12502
lthumb -4.25165 45.0445
rfemur 0.913395 -13.5374 18.8448
rtibia 12.2246
rfoot -10.4458 -1.81672
rtoes -12.4368
lfemur -7.61926 -11.2685 -17.8686
ltibia 22.3697
lfoot -20.7384 9.16033
ltoes -10.1616
84
root 6.66858 18.3018 -6.53631 -177.547 -8.43 179.224
lowerback -4.08844 1.03013 -3.88863
upperback 1.32473 1.57404 0.32864
thorax 3.54828 0.690846 2.63091
lowerneck -15.3093 2.95133 -3.37776
upperneck 26.7455 1.78486 7.60383
head 11.0408 0.957035 3.51267
rclavicle -2.37812e-014 -1.73937e-016
rhumerus -43.2859 -17.8584 -84.1952
rradius 34.4382
rwrist 38.6705
rhand -36.6205 -14.822
rfingers 7.12502
rthumb -9.70849 -44.5782
lclavicle -2.37812e-014 -1.73937e-016
lhumerus -37.4144 -3.40115 92.6736
lradius 24.9063
lwrist -32.6159
lhand -31.4951 15.3475
lfingers 7.12502
lthumb -4.7612 45.274
rfemur 0.943502 -13.4711 18.8753
rtibia 12.2134
rfoot -10.4321 -1.83061
rtoes -12.2974
lfemur -7.60667 -11.2128 -17.8136
ltibia 22.3931
lfoot -20.7725 9.15088
ltoes -10.1749
85
root 6.6682 18.3022 -6.54164 -177.539 -8.389 179.234
lowerback -4.01182 1.04848 -3.907
upperback 1.30379 1.59564 0.332191
thorax 3.48115 0.702973 2.64407
lowerneck -15.1808 2.80092 -3.46402
upperneck 26.691 1.58056 7.62034
head 11.0073 0.85262 3.50118
rclavicle 3.03504e-014 -3.77691e-015
rhumerus -43.3714 -17.8169 -84.2105
rradius 34.8553
rwrist 38.2894
rhand -36.8056 -14.6943
rfingers 7.12502
rthumb -9.88708 -44.4422
lclavicle 3.03504e-014 -3.77691e-015
lhumerus -37.5029 -3.31931 92.6232
lradius 25.0347
lwrist -32.434
lhand -32.0141 15.5389
lfingers 7.12502
lthumb -5.26236 45.4536
rfemur 0.938482 -13.4712 18.8827
rtibia 12.2268
rfoot -10.4677 -1.86229
rtoes -12.2316
lfemur -7.59528 -11.2406 -17.8088
ltibia 22.4067
lfoot -20.8285 9.21594
ltoes -10.1478
86
root 6.66707 18.3022 -6.54673 -177.49 -8.38534 179.293
lowerback -3.9917 1.07325 -3.8054
upperback 1.29233 1.62279 0.314128
thorax 3.45893 0.719608 2.56946
lowerneck -15.1301 2.62196 -3.78492
upperneck 26.6221 1.30734 7.97175
head 10.9814 0.734973 3.64585
rclavicle -2.07544e-014 1.49089e-016
rhumerus -43.3457 -17.4807 -84.4279
rradius 35.2365
rwrist 37.5864
rhand -36.9485 -14.9941
rfingers 7.12502
rthumb -10.025 -44.7353
lclavicle -2.07544e-014 1.49089e-016
lhumerus -37.5619 -3.24468 92.5284
lradius 25.1504
lwrist -32.4068
lhand -32.7151 15.9101
lfingers 7.12502
lthumb -5.93915 45.8069
rfemur 0.910789 -13.5738 18.9396
rtibia 12.1902
rfoot -10.5605 -1.93711
rtoes -12.263
lfemur -7.67001 -11.1899 -17.7305
ltibia 22.4502
lfoot -20.8329 9.15497
ltoes -10.2124
87
root 6.66628 18.301 -6.55102 -177.479 -8.33497 179.275
lowerback -3.92722 1.07193 -3.83639
upperback 1.29409 1.62023 0.295262
thorax 3.42429 0.718448 2.56554
lowerneck -15.0813 2.50682 -3.87708
upperneck 26.5939 1.12379 8.09476
head 10.9722 0.653014 3.68046
rclavicle 4.58944e-014 -6.21202e-015
rhumerus -43.3407 -17.2492 -84.5291
rradius 35.6419
rwrist 37.5647
rhand -37.0893 -14.8843
rfingers 7.12502
rthumb -10.1608 -44.6189
lclavicle 4.58944e-014 -6.21202e-015
lhumerus -37.6075 -3.04819 92.405
lradius 25.3512
lwrist -32.0356
lhand -33.2494 16.2515
lfingers 7.12502
lthumb -6.45498 46.1331
rfemur 0.896255 -13.6363 18.9037
rtibia 12.2123
rfoot -10.5618 -2.0039
rtoes -12.3176
lfemur -7.67193 -11.2288 -17.7589
ltibia 22.4915
lfoot -20.8928 9.22198
ltoes -10.2111
